<svg width="20" height="20" viewBox="0 0 20 20" fill="none" xmlns="http://www.w3.org/2000/svg">
<path d="M9.15822 1.02008C6.10105 1.31574 3.36791 3.16709 1.98372 5.88428C1.49415 6.84515 1.20534 7.77082 1.04685 8.88656C0.976406 9.37932 0.986972 10.6605 1.06798 11.2095C1.20534 12.188 1.49415 13.1137 1.93794 14.0042C2.81494 15.7746 4.21321 17.1719 5.98834 18.0518C8.85884 19.4808 12.2541 19.2837 14.9309 17.5344C15.977 16.8516 16.9702 15.8379 17.6465 14.7609C17.9071 14.3526 18.2945 13.5572 18.4706 13.0785C18.6503 12.5928 18.8581 11.7551 18.932 11.2095C19.013 10.657 19.0236 9.3758 18.9532 8.88656C18.7453 7.42589 18.2804 6.17993 17.5091 5.01844C17.1851 4.52568 16.8575 4.12444 16.3996 3.66336C14.9943 2.24493 13.2474 1.36501 11.2503 1.06936C10.8206 1.006 9.60905 0.977848 9.15822 1.02008ZM10.9862 1.79793C13.5925 2.10766 15.9171 3.66336 17.2203 5.97579C17.9317 7.23935 18.3368 8.9288 18.2593 10.312C18.1607 12.0719 17.6218 13.5924 16.6074 14.951C16.2482 15.4332 15.4416 16.2392 14.9591 16.5982C12.948 18.0976 10.3945 18.6114 7.99241 18.0025C5.67135 17.4147 3.72716 15.8696 2.64235 13.7472C1.73013 11.9698 1.5012 9.92487 1.99077 7.97145C2.52613 5.84204 3.89974 4.01181 5.81224 2.88199C7.36195 1.96688 9.1864 1.58323 10.9862 1.79793Z" fill="#A4ABB3" stroke="#A4ABB3" stroke-width="0.5"/>
<path d="M11.3527 6.50396C9.69619 7.32967 8.27561 8.05708 8.19205 8.12097C8.07899 8.20453 7.68083 8.95651 6.50112 11.3255C4.82002 14.702 4.86917 14.5644 5.14936 14.8495C5.42954 15.1296 5.31157 15.1739 8.5263 13.5716C10.1484 12.7607 11.569 12.0431 11.687 11.9694C11.8983 11.8366 11.9426 11.758 13.4516 8.73534C14.302 7.02986 15 5.59962 15 5.5603C15 5.30964 14.6903 5 14.4396 5C14.4003 5 13.0092 5.67826 11.3527 6.50396ZM12.1097 8.96142L11.0283 11.1191L8.88021 12.1905C7.69558 12.7803 6.72231 13.2571 6.7174 13.2472C6.70757 13.2374 7.1942 12.2593 7.79389 11.0748L8.88021 8.91227L11.0185 7.84574C12.1933 7.26086 13.1616 6.78411 13.1714 6.79394C13.1813 6.79886 12.6996 7.77693 12.1097 8.96142Z" fill="#A4ABB3"/>
<path d="M9.55094 9.13909C9.19098 9.31527 8.93255 9.82527 9.01562 10.1962C9.08945 10.5393 9.45864 10.9102 9.80014 10.9843C10.1786 11.0678 10.677 10.8082 10.8523 10.428C10.9354 10.2611 11 10.0756 11 10.0107C11 9.73254 10.6862 9.26891 10.4001 9.13909C10.0217 8.95364 9.92013 8.95364 9.55094 9.13909Z" fill="#A4ABB3"/>
</svg>
