<svg width="20" height="20" viewBox="0 0 20 20" fill="none" xmlns="http://www.w3.org/2000/svg">
<g clip-path="url(#clip0_401_3974)">
<path d="M11.4417 17.5C11.2952 17.7526 11.0849 17.9622 10.8319 18.108C10.5789 18.2537 10.292 18.3304 10 18.3304C9.70804 18.3304 9.42118 18.2537 9.16817 18.108C8.91515 17.9622 8.70486 17.7526 8.55835 17.5M18.3334 14.1667H1.66669C2.32973 14.1667 2.96561 13.9033 3.43445 13.4345C3.90329 12.9656 4.16669 12.3297 4.16669 11.6667V7.50002C4.16669 5.95292 4.78127 4.46919 5.87523 3.37523C6.96919 2.28127 8.45292 1.66669 10 1.66669C11.5471 1.66669 13.0308 2.28127 14.1248 3.37523C15.2188 4.46919 15.8334 5.95292 15.8334 7.50002V11.6667C15.8334 12.3297 16.0967 12.9656 16.5656 13.4345C17.0344 13.9033 17.6703 14.1667 18.3334 14.1667Z" stroke="#1F2933" stroke-width="1.5" stroke-linecap="round" stroke-linejoin="round"/>
</g>
<defs>
<clipPath id="clip0_401_3974">
<rect width="20" height="20" fill="white"/>
</clipPath>
</defs>
</svg>
