<svg width="20" height="20" viewBox="0 0 20 20" fill="none" xmlns="http://www.w3.org/2000/svg">
<path d="M10 16.6667C14.595 16.6667 18.3333 12.9283 18.3333 8.33333C18.3333 3.73833 14.595 0 10 0C5.405 0 1.66667 3.73833 1.66667 8.33333C1.66667 12.9283 5.405 16.6667 10 16.6667ZM10 1.66667C13.6758 1.66667 16.6667 4.6575 16.6667 8.33333C16.6667 12.0092 13.6758 15 10 15C6.32417 15 3.33333 12.0092 3.33333 8.33333C3.33333 4.6575 6.32417 1.66667 10 1.66667ZM20 17.0833C20 18.6917 18.6917 20 17.0833 20H2.91667C1.30833 20 0 18.6917 0 17.0833C0 16.1717 0.435 15.3008 1.16333 14.7525C1.53167 14.4758 2.05417 14.5508 2.33 14.9167C2.60667 15.2842 2.53333 15.8067 2.16583 16.0833C1.84833 16.3217 1.66667 16.6867 1.66667 17.0825C1.66667 17.7717 2.2275 18.3325 2.91667 18.3325H17.0833C17.7725 18.3325 18.3333 17.7717 18.3333 17.0825C18.3333 16.6858 18.1508 16.3217 17.8333 16.0825C17.4658 15.805 17.3925 15.2825 17.67 14.915C17.9458 14.5492 18.4692 14.4742 18.8367 14.7517C19.5758 15.31 20 16.1592 20 17.0833ZM11.6667 10C11.6667 9.68417 11.4408 9.41833 11.13 9.36583L8.59583 8.94417C7.4775 8.7575 6.66667 7.79917 6.66667 6.66667C6.66667 5.28833 7.78833 4.16667 9.16667 4.16667V3.33333C9.16667 2.8725 9.54 2.5 10 2.5C10.46 2.5 10.8333 2.8725 10.8333 3.33333V4.16667H11.0567C11.9458 4.16667 12.7758 4.645 13.2217 5.41583C13.4517 5.815 13.3158 6.32417 12.9175 6.55417C12.52 6.78583 12.01 6.64833 11.7792 6.25083C11.63 5.9925 11.3533 5.83333 11.0567 5.83333H9.16667C8.7075 5.83333 8.33333 6.20667 8.33333 6.66667C8.33333 6.9825 8.55917 7.24833 8.87 7.30083L11.4042 7.7225C12.5225 7.90917 13.3333 8.8675 13.3333 10C13.3333 11.3783 12.2117 12.5 10.8333 12.5V13.3333C10.8333 13.7942 10.46 14.1667 10 14.1667C9.54 14.1667 9.16667 13.7942 9.16667 13.3333V12.5H8.94333C8.05417 12.5 7.22417 12.0217 6.77833 11.2508C6.54833 10.8517 6.68417 10.3425 7.0825 10.1125C7.47917 9.88083 7.99 10.0183 8.22083 10.4158C8.37 10.6742 8.64667 10.8333 8.94333 10.8333H10.8333C11.2925 10.8333 11.6667 10.46 11.6667 10Z" fill="#A4ABB3"/>
</svg>
