<svg width="20" height="20" viewBox="0 0 20 20" fill="none" xmlns="http://www.w3.org/2000/svg">
<path d="M2 15V9.8C2 7.73131 2.84285 5.74735 4.34315 4.28457C5.84344 2.82178 7.87827 2 10 2C12.1217 2 14.1566 2.82178 15.6569 4.28457C17.1571 5.74735 18 7.73131 18 9.8V15" stroke="#A4ABB3" stroke-width="1.5" stroke-linecap="round" stroke-linejoin="round"/>
<path d="M18 16.2857C18 16.7404 17.8127 17.1764 17.4793 17.4979C17.1459 17.8194 16.6937 18 16.2222 18H15.3333C14.8618 18 14.4097 17.8194 14.0763 17.4979C13.7429 17.1764 13.5556 16.7404 13.5556 16.2857V13.7143C13.5556 13.2596 13.7429 12.8236 14.0763 12.5021C14.4097 12.1806 14.8618 12 15.3333 12H18V16.2857ZM2 16.2857C2 16.7404 2.1873 17.1764 2.5207 17.4979C2.8541 17.8194 3.30628 18 3.77778 18H4.66667C5.13816 18 5.59035 17.8194 5.92375 17.4979C6.25714 17.1764 6.44444 16.7404 6.44444 16.2857V13.7143C6.44444 13.2596 6.25714 12.8236 5.92375 12.5021C5.59035 12.1806 5.13816 12 4.66667 12H2V16.2857Z" stroke="#A4ABB3" stroke-width="1.5" stroke-linecap="round" stroke-linejoin="round"/>
</svg>
