<svg width="46" height="46" viewBox="0 0 46 46" fill="none" xmlns="http://www.w3.org/2000/svg">
<path d="M22.997 17.3559C19.8737 17.3559 17.3531 19.8766 17.3531 23C17.3531 26.1234 19.8737 28.6441 22.997 28.6441C26.1203 28.6441 28.641 26.1234 28.641 23C28.641 19.8766 26.1203 17.3559 22.997 17.3559ZM22.997 26.6682C20.9772 26.6682 19.3289 25.0199 19.3289 23C19.3289 20.9801 20.9772 19.3318 22.997 19.3318C25.0169 19.3318 26.6652 20.9801 26.6652 23C26.6652 25.0199 25.0169 26.6682 22.997 26.6682ZM28.8722 15.8094C28.1429 15.8094 27.554 16.3983 27.554 17.1275C27.554 17.8568 28.1429 18.4457 28.8722 18.4457C29.6014 18.4457 30.1903 17.8595 30.1903 17.1275C30.1905 16.9544 30.1565 16.7829 30.0904 16.6228C30.0242 16.4628 29.9271 16.3174 29.8047 16.195C29.6822 16.0725 29.5369 15.9755 29.3768 15.9093C29.2168 15.8431 29.0453 15.8092 28.8722 15.8094ZM33.9988 23C33.9988 21.481 34.0125 19.9757 33.9272 18.4594C33.8419 16.6982 33.4402 15.1352 32.1523 13.8473C30.8617 12.5567 29.3014 12.1577 27.5403 12.0724C26.0213 11.9871 24.516 12.0008 22.9998 12.0008C21.4808 12.0008 19.9756 11.9871 18.4593 12.0724C16.6982 12.1577 15.1351 12.5594 13.8473 13.8473C12.5567 15.1379 12.1577 16.6982 12.0724 18.4594C11.9871 19.9785 12.0008 21.4837 12.0008 23C12.0008 24.5163 11.9871 26.0243 12.0724 27.5406C12.1577 29.3018 12.5594 30.8648 13.8473 32.1527C15.1379 33.4433 16.6982 33.8423 18.4593 33.9276C19.9783 34.0129 21.4835 33.9992 22.9998 33.9992C24.5188 33.9992 26.024 34.0129 27.5403 33.9276C29.3014 33.8423 30.8645 33.4406 32.1523 32.1527C33.4429 30.8621 33.8419 29.3018 33.9272 27.5406C34.0153 26.0243 33.9988 24.519 33.9988 23ZM31.5772 29.4889C31.3763 29.9897 31.1341 30.364 30.7461 30.7492C30.3581 31.1372 29.9866 31.3794 29.4858 31.5803C28.0384 32.1554 24.6013 32.0261 22.997 32.0261C21.3927 32.0261 17.953 32.1554 16.5055 31.583C16.0047 31.3822 15.6305 31.14 15.2452 30.752C14.8572 30.364 14.615 29.9925 14.4142 29.4916C13.8418 28.0414 13.9711 24.6043 13.9711 23C13.9711 21.3957 13.8418 17.9558 14.4142 16.5084C14.615 16.0075 14.8572 15.6333 15.2452 15.248C15.6332 14.8628 16.0047 14.6178 16.5055 14.417C17.953 13.8446 21.3927 13.9739 22.997 13.9739C24.6013 13.9739 28.0411 13.8446 29.4886 14.417C29.9894 14.6178 30.3636 14.86 30.7489 15.248C31.1369 15.636 31.3791 16.0075 31.5799 16.5084C32.1523 17.9558 32.023 21.3957 32.023 23C32.023 24.6043 32.1523 28.0414 31.5772 29.4889Z" fill="#1F2933"/>
<rect x="0.5" y="0.5" width="45" height="45" rx="22.5" stroke="#1F2933"/>
</svg>
