<svg width="46" height="46" viewBox="0 0 46 46" fill="none" xmlns="http://www.w3.org/2000/svg">
<g clip-path="url(#clip0_320_802)">
<path d="M13.293 13.1055C13.332 13.168 15.043 15.6562 17.0938 18.6445C19.1445 21.6328 20.8242 24.0938 20.8242 24.1133C20.8242 24.1367 19.1406 26.1133 17.0781 28.5117C15.0195 30.9062 13.3086 32.8984 13.2773 32.9336C13.2266 32.9961 13.2812 33 14.082 33H14.9414L18.2578 29.1445C20.082 27.0273 21.5938 25.2852 21.6133 25.2812C21.6367 25.2734 22.8477 27.0078 24.3047 29.1328L26.957 33H29.8633C32.6172 33 32.7656 32.9961 32.7305 32.9297C32.7109 32.8945 30.9336 30.3047 28.7852 27.1797C26.6367 24.0547 24.875 21.4883 24.875 21.4766C24.875 21.4609 26.5078 19.5547 28.5039 17.2383L32.1289 13.0195L31.2891 13.0078C30.5977 13 30.4375 13.0078 30.3867 13.0547C30.3516 13.0859 28.9258 14.7383 27.2188 16.7227C25.5117 18.7109 24.1016 20.3281 24.0859 20.3203C24.0703 20.3086 22.9297 18.6602 21.5508 16.6523L19.043 13H16.1328H13.2266L13.293 13.1055ZM24.2891 22.9844C27.6289 27.7656 30.3711 31.6914 30.375 31.7148C30.3867 31.7383 29.9141 31.7461 29.0703 31.7422L27.75 31.7305L21.6641 23.0273C18.3164 18.2383 15.5781 14.3125 15.5781 14.3047C15.5781 14.2969 16.1719 14.2891 16.8984 14.2891L18.2148 14.293L24.2891 22.9844Z" fill="#042727"/>
</g>
<rect x="0.5" y="0.5" width="45" height="45" rx="22.5" stroke="#1F2933"/>
<defs>
<clipPath id="clip0_320_802">
<rect width="20" height="20" fill="white" transform="translate(13 13)"/>
</clipPath>
</defs>
</svg>
