<svg width="46" height="46" viewBox="0 0 46 46" fill="none" xmlns="http://www.w3.org/2000/svg">
<path d="M15.2422 12.447C14.6047 12.5688 13.9203 13.1032 13.6297 13.7126C13.4141 14.172 13.3485 14.6688 13.4469 15.1235C13.5547 15.6063 13.7282 15.9532 14.0235 16.272C15.4578 17.8142 17.9844 16.8204 17.9844 14.711C17.9844 13.2392 16.686 12.1704 15.2422 12.447Z" fill="#1F2933"/>
<path d="M26.8438 18.5781C26.6234 18.625 26.3422 18.7 26.2109 18.7422C25.4281 19.0141 24.6406 19.6141 24.2188 20.275L24.0313 20.5562L24.0219 19.675L24.0078 18.7891L22.1 18.775L20.1875 18.7656V25.1875V31.6094H22.1797H24.1719V28.1734C24.1719 24.7516 24.1953 24.1937 24.3406 23.6172C24.5141 22.9422 24.9266 22.4031 25.4469 22.1641C25.9813 21.9203 26.8391 21.8922 27.3781 22.0937C27.8984 22.2906 28.2875 22.7734 28.4563 23.4344C28.5969 23.9828 28.625 24.7422 28.625 28.15V31.5625H30.6172H32.6094V27.8219C32.6094 23.9547 32.5813 23.1016 32.4172 22.1875C32.0328 20.0078 30.9266 18.8547 28.9203 18.5547C28.2875 18.4609 27.3453 18.4703 26.8438 18.5781Z" fill="#1F2933"/>
<path d="M13.7188 25.1875V31.6094H15.7109H17.7031V25.1875V18.7656H15.7109H13.7188V25.1875Z" fill="#1F2933"/>
<rect x="0.5" y="0.5" width="45" height="45" rx="22.5" stroke="#1F2933"/>
</svg>
